<svg width="212" height="74" viewBox="0 0 212 74" fill="none" xmlns="http://www.w3.org/2000/svg">
<path d="M0.100935 34.8878L0.818692 33.8112L34.314 20.772L36.9458 27.5907L36.3477 28.5477L8.47477 39.0748V39.6729L36.4673 49.9607L34.7925 56.5402L33.7159 57.3776L0.100935 44.5776V34.8878ZM45.8523 73.2879H37.5981L36.8804 72.3308L55.3028 1.99065H63.4374L64.3944 3.18691L45.8523 73.2879ZM80.4386 51.0374H81.2759L87.4965 28.3084L88.932 21.2505H100.416L101.373 27.5907L106.637 50.9178H107.354L113.455 28.3084L114.891 21.2505H124.939L111.9 63H100.775L94.3152 36.2037H93.4778L86.1806 63H74.3376L63.5713 21.6093L74.3376 21.0112L75.2946 27.5907L80.4386 51.0374ZM152.748 20.772C158.011 20.772 162.039 22.5664 164.83 26.1551C167.701 29.6642 169.137 34.848 169.137 41.7065C169.137 48.5651 167.263 53.9882 163.514 57.9757C159.846 61.9632 154.821 63.957 148.441 63.957C145.411 63.957 142.061 63.2393 138.393 61.8037L132.053 64.0766L130.617 62.8804L131.335 45.8935L130.737 1.03364L142.58 0.0766335L142.34 27.2318H142.699C145.969 24.2012 149.319 22.048 152.748 20.772ZM148.322 56.1813C154.702 56.1016 157.892 51.795 157.892 43.2617C157.892 34.6486 155.22 30.3819 149.877 30.4617C147.405 30.4617 144.853 31.6579 142.221 34.0505L141.982 44.3383L142.221 54.5065C144.454 55.5433 146.487 56.1016 148.322 56.1813ZM211.455 34.8878V44.5776L177.84 57.3776L176.764 56.5402L175.089 49.9607L203.081 39.6729V39.0748L175.208 28.5477L174.61 27.5907L177.242 20.772L210.737 33.8112L211.455 34.8878Z" fill="black"/>
</svg>
